# xmcd CD database file
# Copyright (C) 1995-1998 Ti Kan
#
# Track frame offsets:
#	182
#	11357
#	23507
#	42257
#	64907
#	83582
#	95807
#	102107
#	125732
#	145307
#	159707
#	171707
#	184307
#	198107
#	216407
#	228407
#
# Disc length: 3236 seconds
#
# Revision: 34489964
# Submitted via:  Jet-Audio 4.0
#
DISCID=e10ca210
DTITLE=Various Artists / Pipe Organ Spectacular
TTITLE0=Don Baker (Pipe Organ Spectacular) / The Skaters Waltz
TTITLE1=Reginald Dixon (Pipe Organ Spectacular) / Anniversary Song -
TTITLE1=Loveliest Night of the Year
TTITLE2=Richard Purvis (Pipe Organ Spectacular) / Serenade from "The
TTITLE2=Student Prince"
TTITLE3=Dick Leibert (Pipe Organ Spectacular) / In a Persian Market
TTITLE4=Ashley Miller (Pipe Organ Spectacular) / Climb Ev'ry Mountain
TTITLE5=Billy Nalle (Pipe Organ Spectacular) / Jalousie
TTITLE6=Dick Leiber (Pipe Organ Spectacular) / La Paloma
TTITLE7=Richard Purvis (Pipe Organ Spectacular) / Clair De Lune
TTITLE8=Dick Leibert (Pipe Organ Spectacular) / Pomp & Circumstance
TTITLE9=Don Baker (Pipe Organ Spectacular) / The Impossible Dream
TTITLE10=Ashley Miller (Pipe Organ Spectacular) / On the Road to Mandalay
TTITLE11=Virgil Fox (Pipe Organ Spectacular) / Sheep May Safely Graze
TTITLE12=Dick Leibert (Pipe Organ Spectacular) / Song of India
TTITLE13=Bill Thompson (Pipe Organ Spectacular) / Carmen Medley
TTITLE14=Billy Nalle (Pipe Organ Spectacular) / Through the Years
TTITLE15=Dick Leibert (Pipe Organ Spectacular) / Battle Hymn of the
TTITLE15=Republic
EXTD=\nYEAR: 2000  ID3G:  17
EXTT0=Don Baker
EXTT1=Reginald Dixon
EXTT2=Richard Purvis
EXTT3=Dick Leibert
EXTT4=Ashley Miller
EXTT5=Billy Nalle
EXTT6=Dick Leiber
EXTT7=Richard Purvis
EXTT8=Dick Leibert
EXTT9=Don Baker
EXTT10=Ashley Miller
EXTT11=Virgil Fox
EXTT12=Dick Leibert
EXTT13=Bill Thompson
EXTT14=Billy Nalle
EXTT15=Dick Leibert
PLAYORDER=
